<svg width="14" height="15" viewBox="0 0 14 15" fill="none" xmlns="http://www.w3.org/2000/svg">
<path d="M6.99992 1.30908C5.75578 1.30908 4.4925 1.83326 3.54914 2.61912C2.66539 3.35467 2.07586 4.3117 2.00367 5.24686C2.07148 5.26326 2.13984 5.27967 2.2082 5.29607C3.89641 5.68436 5.58078 5.86756 7.26789 5.84568C7.21867 5.73084 7.1968 5.60232 7.21867 5.46834C7.26242 5.22498 7.44289 5.04725 7.6507 4.95154C7.85852 4.85311 8.11008 4.82303 8.36437 4.86951C8.37531 4.87225 8.38625 4.87498 8.39992 4.87772C8.39172 4.84764 8.38898 4.81482 8.38352 4.78475C8.34523 4.51951 8.38352 4.26795 8.49016 4.0574C8.5968 3.84959 8.7882 3.67186 9.0343 3.63904C9.28039 3.6035 9.51281 3.72107 9.67141 3.89061C9.81906 4.05467 9.92297 4.26522 9.96672 4.50857C9.97219 4.50037 9.98039 4.49217 9.98586 4.48396C10.1554 4.27615 10.3659 4.13396 10.5929 4.06834C10.8171 4.00271 11.0741 4.02186 11.2683 4.18045C11.4624 4.33631 11.5363 4.58514 11.5198 4.81756C11.5034 5.01717 11.4323 5.21678 11.3066 5.39998C11.3667 5.38631 11.4296 5.37537 11.4898 5.3617C11.5363 5.3535 11.5827 5.34256 11.6292 5.33162C11.6593 5.32615 11.6921 5.31795 11.7222 5.31248C11.8124 5.29061 11.9054 5.26873 11.9956 5.24686C11.9245 4.3117 11.3339 3.35467 10.4507 2.61912C9.50734 1.83326 8.24406 1.30908 6.99992 1.30908ZM9.12453 4.12303C9.11906 4.12303 9.11086 4.12576 9.10266 4.12576C9.0425 4.13397 8.98234 4.17498 8.92766 4.27889C8.8757 4.38553 8.84562 4.54139 8.87023 4.71639C8.88937 4.85584 8.94133 4.97889 9.00422 5.06639C9.14367 4.98162 9.30227 4.9324 9.47453 4.92967C9.49367 4.84217 9.50188 4.73553 9.4882 4.62889C9.46359 4.45662 9.38977 4.31443 9.3132 4.22693C9.24211 4.15037 9.17922 4.12303 9.12453 4.12303ZM10.839 4.52225C10.8062 4.52225 10.7706 4.52771 10.7269 4.53865C10.6148 4.5742 10.478 4.65897 10.3687 4.79568C10.2593 4.92967 10.2046 5.08006 10.1937 5.19764V5.23318C10.2566 5.29881 10.3113 5.37537 10.355 5.4574C10.3933 5.46287 10.4398 5.4574 10.4972 5.441C10.6066 5.40818 10.746 5.32068 10.8527 5.1867C10.9648 5.04998 11.0167 4.90232 11.0277 4.78475C11.0359 4.66717 11.0058 4.59881 10.9593 4.56053C10.9292 4.53865 10.8909 4.52225 10.839 4.52225ZM8.1593 5.34256C8.04172 5.33982 7.93508 5.3617 7.85852 5.39451C7.75461 5.44373 7.71359 5.50115 7.70539 5.55584C7.69445 5.60779 7.71359 5.67615 7.79289 5.75545C7.87219 5.83475 8.00891 5.91131 8.17297 5.94139C8.29328 5.96326 8.41086 5.95506 8.50383 5.93045C8.5093 5.77732 8.54758 5.62967 8.61047 5.49842C8.52844 5.43553 8.41359 5.37811 8.27961 5.3535C8.23859 5.34803 8.19758 5.34256 8.1593 5.34256ZM9.49367 5.42186C9.2257 5.42186 8.99602 5.65428 8.99602 5.96326C8.99602 6.27225 9.2257 6.50467 9.49367 6.50467C9.76164 6.50467 9.99133 6.27225 9.99133 5.96326C9.99133 5.65428 9.76164 5.42186 9.49367 5.42186ZM1.88008 5.72264C1.70016 6.07264 1.13578 7.12264 0.454102 7.92654C4.94641 9.08865 9.05344 9.08865 13.546 7.92654C12.8652 7.12264 12.2991 6.07264 12.1187 5.72264C11.9847 5.75545 11.8507 5.78553 11.7195 5.81561C11.8398 5.96053 11.9136 6.14373 11.889 6.34334C11.8616 6.58943 11.6921 6.78631 11.487 6.89568C11.2792 7.00779 11.0304 7.05428 10.7624 7.0242C10.6831 7.016 10.6093 7.00232 10.5355 6.98045C10.5573 7.05701 10.5765 7.13631 10.5847 7.22107C10.6148 7.48904 10.5683 7.73787 10.4562 7.94568C10.3441 8.15076 10.1472 8.32029 9.90109 8.34764C9.65227 8.37498 9.42531 8.25193 9.26945 8.07693C9.1382 7.92381 9.04524 7.7324 9.00149 7.51365C8.81008 7.69959 8.58039 7.81443 8.34797 7.85271C8.11828 7.88826 7.86398 7.83631 7.69172 7.65857C7.51945 7.47811 7.4757 7.22381 7.52219 6.99412C7.56867 6.7699 7.68898 6.55115 7.87219 6.36795C7.83391 6.35428 7.79836 6.34061 7.76281 6.3242C5.80227 6.39256 3.83898 6.19295 1.88008 5.72264ZM10.7679 5.91131C10.6585 5.91404 10.5601 5.93865 10.4835 5.97147C10.4808 6.11092 10.4534 6.2449 10.4042 6.36795L10.4097 6.37342C10.4999 6.44725 10.6476 6.51834 10.8171 6.53748C10.9921 6.55662 11.148 6.52107 11.2519 6.46639C11.3558 6.40896 11.3941 6.34607 11.4023 6.28865C11.4077 6.2285 11.3831 6.16014 11.2956 6.08084C11.2054 6.00428 11.0605 5.93592 10.8855 5.91678C10.8636 5.91404 10.8445 5.91404 10.8226 5.91131H10.7679ZM8.64875 6.4992C8.63781 6.4992 8.62414 6.4992 8.6132 6.50193C8.49836 6.52107 8.35344 6.58943 8.22766 6.70975C8.10187 6.83006 8.02805 6.97225 8.00344 7.08709C7.98156 7.20467 8.00617 7.27303 8.04719 7.31678C8.0882 7.36053 8.15656 7.38514 8.27414 7.366C8.38898 7.34686 8.53391 7.2785 8.65969 7.15818C8.78547 7.03787 8.8593 6.89568 8.88391 6.78084V6.77537C8.79094 6.69881 8.70891 6.60584 8.64875 6.4992ZM9.94211 6.88475C9.81359 6.95311 9.66594 6.99412 9.51008 6.99686C9.47727 7.09256 9.46086 7.21561 9.47453 7.34412C9.49367 7.51912 9.56203 7.66404 9.63859 7.75428C9.71789 7.84178 9.78625 7.86639 9.84641 7.86092C9.90656 7.85272 9.96672 7.81443 10.0241 7.71053C10.0788 7.60662 10.1144 7.45076 10.0952 7.27576C10.0761 7.11443 10.0159 6.97498 9.94211 6.88475ZM4.0468 9.11326C4.24914 10.5543 4.53625 11.607 4.88352 12.3426C5.13508 12.8812 5.41945 13.2558 5.74758 13.4773C6.07844 13.6988 6.46125 13.7453 6.80852 13.6304C7.50305 13.4008 8.06633 12.6406 8.51477 11.5988C8.81281 10.9125 9.0507 10.0922 9.20383 9.19256C9.0343 9.20896 8.8675 9.2199 8.69797 9.23357C8.55031 10.0484 8.32883 10.7894 8.06359 11.4047C7.6425 12.3836 7.09562 13.0179 6.65539 13.1629C6.43391 13.2367 6.24523 13.2176 6.02375 13.0699C5.80227 12.9195 5.55617 12.6215 5.32922 12.1347C5.02297 11.4894 4.75227 10.516 4.55266 9.17068C4.38586 9.15154 4.21633 9.13514 4.0468 9.11326Z" fill="#16270C"/>
</svg>
