<svg width="15" height="15" viewBox="0 0 15 15" fill="none" xmlns="http://www.w3.org/2000/svg">
<g clip-path="url(#clip0_4_1687)">
<path d="M5.02674 7.05667C5.08741 7.05667 5.14769 7.05861 5.20758 7.0625C5.13106 7.4603 5.15969 7.87119 5.29065 8.25453C5.4216 8.63788 5.65034 8.9804 5.95424 9.24825C5.91185 9.48392 5.89047 9.72561 5.89008 9.97333C5.88867 10.8995 6.20354 11.7984 6.78258 12.5213C6.24473 12.7325 5.66107 12.7997 5.08932 12.7161C4.51758 12.6325 3.97755 12.4011 3.52266 12.0448C3.06777 11.6885 2.71378 11.2196 2.4957 10.6845C2.27762 10.1494 2.20301 9.56669 2.27924 8.99392C2.48135 8.42699 2.85391 7.93646 3.34581 7.58963C3.83771 7.24279 4.42486 7.05663 5.02674 7.05667ZM12.5214 8.2175C12.7326 8.75534 12.7997 9.339 12.7162 9.91075C12.6326 10.4825 12.4012 11.0225 12.0449 11.4774C11.6886 11.9323 11.2197 12.2863 10.6846 12.5044C10.1495 12.7225 9.56677 12.7971 8.99399 12.7208C8.39787 12.5084 7.88701 12.1079 7.5385 11.5796C7.18999 11.0514 7.02274 10.4241 7.06199 9.7925C7.45979 9.86902 7.87068 9.84038 8.25402 9.70943C8.63737 9.57848 8.9799 9.34974 9.24774 9.04583C9.4838 9.08822 9.72569 9.10961 9.97341 9.11C10.8996 9.1114 11.7985 8.79653 12.5214 8.2175ZM7.50008 6.33333C7.8095 6.33333 8.10624 6.45625 8.32503 6.67504C8.54383 6.89384 8.66674 7.19058 8.66674 7.5C8.66674 7.80942 8.54383 8.10617 8.32503 8.32496C8.10624 8.54375 7.8095 8.66667 7.50008 8.66667C7.19066 8.66667 6.89391 8.54375 6.67512 8.32496C6.45633 8.10617 6.33341 7.80942 6.33341 7.5C6.33341 7.19058 6.45633 6.89384 6.67512 6.67504C6.89391 6.45625 7.19066 6.33333 7.50008 6.33333ZM9.43091 2.25C9.90377 2.24995 10.3712 2.35093 10.8019 2.54619C11.2325 2.74144 11.6165 3.02646 11.9281 3.38216C12.2396 3.73786 12.4716 4.15603 12.6084 4.60866C12.7453 5.06129 12.7838 5.53793 12.7215 6.00667C12.5088 6.60267 12.1081 7.11335 11.5798 7.46165C11.0514 7.80994 10.4242 7.97696 9.79258 7.9375C9.86909 7.5397 9.84046 7.12881 9.70951 6.74547C9.57855 6.36212 9.34982 6.0196 9.04591 5.75175C9.0883 5.51608 9.10969 5.27439 9.11008 5.02667C9.11148 4.10047 8.79661 3.20155 8.21758 2.47867C8.6042 2.32736 9.01574 2.2498 9.43091 2.25ZM5.56924 2.25C5.71741 2.25 5.86324 2.25953 6.00674 2.27858C6.60275 2.49124 7.11343 2.89197 7.46172 3.42031C7.81002 3.94864 7.97704 4.57592 7.93758 5.2075C7.53977 5.13098 7.12889 5.15962 6.74555 5.29057C6.3622 5.42152 6.01967 5.65026 5.75183 5.95417C5.51252 5.91123 5.26987 5.88976 5.02674 5.89C4.10055 5.8886 3.20163 6.20347 2.47874 6.7825C2.28107 6.27918 2.20937 5.73519 2.26986 5.19784C2.33035 4.66049 2.52122 4.14606 2.82585 3.69929C3.13048 3.25252 3.53965 2.88695 4.01778 2.63436C4.4959 2.38177 5.0285 2.24983 5.56924 2.25Z" fill="#16270C"/>
</g>
<defs>
<clipPath id="clip0_4_1687">
<rect width="14" height="14" fill="white" transform="translate(0.5 0.5)"/>
</clipPath>
</defs>
</svg>
