<svg width="29" height="28" viewBox="0 0 29 28" fill="none" xmlns="http://www.w3.org/2000/svg">
<path d="M23.507 13.8512C23.4184 13.9026 23.321 13.9518 23.2204 13.9999C23.321 14.048 23.4184 14.0972 23.507 14.1487C24.0085 14.4338 24.4488 14.8154 24.8023 15.2714C25.1558 15.7274 25.4156 16.2488 25.5668 16.8056C25.7179 17.3624 25.7575 17.9437 25.6831 18.5158C25.6087 19.088 25.4219 19.6398 25.1334 20.1395C24.8449 20.6391 24.4605 21.0768 24.0021 21.4273C23.5438 21.7778 23.0207 22.0341 22.4629 22.1816C21.9051 22.3291 21.3236 22.3647 20.7519 22.2866C20.1803 22.2084 19.6297 22.018 19.132 21.7262C19.0434 21.6747 18.9515 21.6168 18.8607 21.5522C18.8695 21.6616 18.8749 21.771 18.8749 21.8804C18.8749 23.0407 18.414 24.1535 17.5935 24.974C16.7731 25.7944 15.6603 26.2554 14.4999 26.2554C13.3396 26.2554 12.2268 25.7944 11.4063 24.974C10.5859 24.1535 10.1249 23.0407 10.1249 21.8804C10.1249 21.7776 10.1249 21.6682 10.1392 21.5522C10.0484 21.6146 9.9565 21.6747 9.86791 21.7262C9.37016 22.018 8.81961 22.2084 8.24795 22.2866C7.6763 22.3647 7.09483 22.3291 6.53702 22.1816C5.97921 22.0341 5.45608 21.7778 4.99775 21.4273C4.53941 21.0768 4.15493 20.6391 3.86644 20.1395C3.57795 19.6398 3.39114 19.088 3.31677 18.5158C3.2424 17.9437 3.28194 17.3624 3.43311 16.8056C3.58429 16.2488 3.8441 15.7274 4.19761 15.2714C4.55112 14.8154 4.99133 14.4338 5.49291 14.1487C5.5815 14.0972 5.67884 14.048 5.77947 13.9999C5.67884 13.9518 5.5815 13.9026 5.49291 13.8512C4.99133 13.566 4.55112 13.1844 4.19761 12.7284C3.8441 12.2724 3.58429 11.751 3.43311 11.1942C3.28194 10.6374 3.2424 10.0561 3.31677 9.48398C3.39114 8.91182 3.57795 8.36002 3.86644 7.86034C4.15493 7.36067 4.53941 6.923 4.99775 6.57253C5.45608 6.22205 5.97921 5.96569 6.53702 5.81822C7.09483 5.67074 7.6763 5.63506 8.24795 5.71322C8.81961 5.79138 9.37016 5.98185 9.86791 6.27365C9.9565 6.32506 10.0484 6.38303 10.1392 6.44756C10.1304 6.33818 10.1249 6.22881 10.1249 6.1249C10.1249 4.96458 10.5859 3.85178 11.4063 3.03131C12.2268 2.21084 13.3396 1.7499 14.4999 1.7499C15.6603 1.7499 16.7731 2.21084 17.5935 3.03131C18.414 3.85178 18.8749 4.96458 18.8749 6.1249C18.8749 6.22771 18.8695 6.33709 18.8607 6.44756C18.9515 6.38521 19.0434 6.32506 19.132 6.27365C19.7947 5.88978 20.547 5.68756 21.3129 5.6874C21.6978 5.68787 22.0809 5.73861 22.4526 5.83834C23.2884 6.06236 24.039 6.5292 24.6095 7.17983C25.18 7.83046 25.5447 8.63565 25.6576 9.49357C25.7705 10.3515 25.6264 11.2236 25.2436 11.9997C24.8608 12.7757 24.2564 13.4208 23.507 13.8533V13.8512ZM14.4999 10.9374C13.8942 10.9374 13.3021 11.117 12.7985 11.4535C12.2949 11.79 11.9023 12.2683 11.6706 12.8279C11.4388 13.3875 11.3781 14.0033 11.4963 14.5974C11.6144 15.1914 11.9061 15.7371 12.3344 16.1654C12.7627 16.5937 13.3084 16.8854 13.9025 17.0036C14.4965 17.1217 15.1123 17.0611 15.6719 16.8293C16.2315 16.5975 16.7098 16.205 17.0463 15.7013C17.3828 15.1977 17.5624 14.6056 17.5624 13.9999C17.5624 13.1877 17.2398 12.4087 16.6655 11.8344C16.0911 11.2601 15.3122 10.9374 14.4999 10.9374Z" fill="#FFF83C"/>
</svg>
