<svg width="15" height="15" viewBox="0 0 15 15" fill="none" xmlns="http://www.w3.org/2000/svg">
<g clip-path="url(#clip0_2032_157)">
<path fill-rule="evenodd" clip-rule="evenodd" d="M6.23959 1.95828C6.45837 1.73957 6.75506 1.6167 7.06442 1.6167C7.37378 1.6167 7.67047 1.73957 7.88926 1.95828L8.84126 2.91028C8.9657 2.73451 9.08664 2.55853 9.20409 2.38237C9.42692 2.04753 9.64042 1.55053 10.1368 1.6882C10.2597 1.72224 10.368 1.7956 10.4453 1.89705C10.5225 1.9985 10.5643 2.12245 10.5644 2.24995V5.74995C10.5645 6.57716 10.2717 7.37769 9.73776 8.00952C9.20385 8.64136 8.4634 9.06366 7.64776 9.20153V11.5349C8.20296 11.4407 8.7273 11.2141 9.1764 10.8744C9.6255 10.5346 9.98616 10.0917 10.2278 9.58303C10.2607 9.51382 10.3069 9.45176 10.3637 9.40039C10.4206 9.34902 10.487 9.30936 10.5592 9.28366C10.6313 9.25795 10.7079 9.24672 10.7844 9.25059C10.8609 9.25447 10.9359 9.27338 11.0051 9.30624C11.0743 9.33911 11.1364 9.38528 11.1878 9.44213C11.2391 9.49897 11.2788 9.56538 11.3045 9.63756C11.3302 9.70974 11.3414 9.78627 11.3376 9.86279C11.3337 9.93931 11.3148 10.0143 11.2819 10.0835C10.9461 10.7922 10.437 11.4047 9.80184 11.8647C9.16666 12.3246 8.42582 12.617 7.64776 12.715C7.64776 13.0451 7.41034 13.3339 7.06442 13.3339C6.71851 13.3339 6.48109 13.0451 6.48109 12.7144C5.70314 12.6165 4.96238 12.3243 4.32722 11.8646C3.69205 11.4049 3.18295 10.7925 2.84692 10.0841C2.78055 9.94434 2.77243 9.78392 2.82434 9.63815C2.87624 9.49237 2.98393 9.3732 3.12371 9.30682C3.26349 9.24045 3.42391 9.23233 3.56969 9.28424C3.71546 9.33615 3.83464 9.44384 3.90101 9.58362C4.14276 10.0921 4.50345 10.535 4.95254 10.8746C5.40164 11.2142 5.92595 11.4407 6.48109 11.5349V9.20153C5.66545 9.06366 4.925 8.64136 4.39108 8.00952C3.85716 7.37769 3.5643 6.57716 3.56442 5.74995V2.24995C3.56438 2.12235 3.60618 1.99827 3.68341 1.8967C3.76064 1.79513 3.86904 1.72168 3.99201 1.68762C4.48551 1.55112 4.70367 2.04987 4.92534 2.38178C5.04201 2.55834 5.16276 2.73451 5.28759 2.91028L6.23959 1.95828ZM6.02492 3.82262C6.26526 4.07753 6.68642 4.58328 7.06442 4.58328C7.44242 4.58328 7.86359 4.07753 8.10392 3.82262L7.06442 2.78312L6.02492 3.82262Z" fill="#16270C"/>
</g>
<defs>
<clipPath id="clip0_2032_157">
<rect width="14" height="14" fill="white" transform="translate(0.0644531 0.5)"/>
</clipPath>
</defs>
</svg>
