<svg width="15" height="15" viewBox="0 0 15 15" fill="none" xmlns="http://www.w3.org/2000/svg">
<g clip-path="url(#clip0_4_1739)">
<path d="M2.25 7.08325C2.25 8.47564 2.80312 9.811 3.78769 10.7956C4.77226 11.7801 6.10761 12.3333 7.5 12.3333C7.5 9.41658 5.14917 7.08325 2.25 7.08325ZM7.5 2.70825C7.88677 2.70825 8.25771 2.8619 8.5312 3.13539C8.80469 3.40888 8.95833 3.77981 8.95833 4.16658C8.95833 4.55336 8.80469 4.92429 8.5312 5.19778C8.25771 5.47127 7.88677 5.62492 7.5 5.62492C7.11323 5.62492 6.74229 5.47127 6.4688 5.19778C6.19531 4.92429 6.04167 4.55336 6.04167 4.16658C6.04167 3.77981 6.19531 3.40888 6.4688 3.13539C6.74229 2.8619 7.11323 2.70825 7.5 2.70825ZM3.76667 5.47908C3.76667 5.86586 3.92031 6.23679 4.1938 6.51028C4.46729 6.78377 4.83823 6.93742 5.225 6.93742C5.53417 6.93742 5.82 6.83825 6.04167 6.68075V6.79158C6.04167 7.17836 6.19531 7.54929 6.4688 7.82278C6.74229 8.09627 7.11323 8.24992 7.5 8.24992C7.88677 8.24992 8.25771 8.09627 8.5312 7.82278C8.80469 7.54929 8.95833 7.17836 8.95833 6.79158V6.68075C9.18 6.83825 9.46583 6.93742 9.775 6.93742C10.1618 6.93742 10.5327 6.78377 10.8062 6.51028C11.0797 6.23679 11.2333 5.86586 11.2333 5.47908C11.2333 4.89575 10.8892 4.39992 10.3992 4.16658C10.8892 3.93325 11.2333 3.43159 11.2333 2.85409C11.2333 2.46731 11.0797 2.09638 10.8062 1.82289C10.5327 1.5494 10.1618 1.39575 9.775 1.39575C9.46583 1.39575 9.18 1.48909 8.95833 1.65242V1.54159C8.95833 1.15481 8.80469 0.783878 8.5312 0.510388C8.25771 0.236897 7.88677 0.083252 7.5 0.083252C7.11323 0.083252 6.74229 0.236897 6.4688 0.510388C6.19531 0.783878 6.04167 1.15481 6.04167 1.54159V1.65242C5.82 1.48909 5.53417 1.39575 5.225 1.39575C4.83823 1.39575 4.46729 1.5494 4.1938 1.82289C3.92031 2.09638 3.76667 2.46731 3.76667 2.85409C3.76667 3.43159 4.11083 3.93325 4.60083 4.16658C4.11083 4.39992 3.76667 4.89575 3.76667 5.47908ZM7.5 12.3333C8.89239 12.3333 10.2277 11.7801 11.2123 10.7956C12.1969 9.811 12.75 8.47564 12.75 7.08325C9.83333 7.08325 7.5 9.41658 7.5 12.3333Z" fill="#16270C"/>
</g>
<defs>
<clipPath id="clip0_4_1739">
<rect width="14" height="14" fill="white" transform="translate(0.5 0.5)"/>
</clipPath>
</defs>
</svg>
