<svg width="15" height="15" viewBox="0 0 15 15" fill="none" xmlns="http://www.w3.org/2000/svg">
<g clip-path="url(#clip0_4_1693)">
<path d="M6.62433 2.01727C6.85242 1.8411 7.16159 1.66669 7.49992 1.66669C7.83825 1.66669 8.14742 1.8411 8.3755 2.01727C8.62284 2.20802 8.86317 2.46819 9.07375 2.77269C9.18109 2.92785 9.28142 3.09702 9.37475 3.28019C9.90744 3.00479 10.4936 2.84835 11.0927 2.82169C11.7507 2.79077 12.1666 3.34435 12.1666 3.88219V5.16669C12.1667 6.30341 11.7519 7.40109 11.0001 8.25367C10.2482 9.10625 9.21106 9.6551 8.08325 9.79719V11.588C8.71092 11.1978 9.63608 10.7399 10.8588 10.4342C10.9336 10.4141 11.0116 10.4091 11.0883 10.4196C11.1651 10.43 11.239 10.4556 11.3057 10.4948C11.3725 10.5341 11.4307 10.5863 11.4771 10.6483C11.5235 10.7103 11.557 10.781 11.5758 10.8561C11.5946 10.9313 11.5982 11.0094 11.5865 11.0859C11.5748 11.1625 11.5479 11.2359 11.5075 11.302C11.4671 11.3681 11.4139 11.4254 11.3511 11.4707C11.2883 11.516 11.2171 11.5484 11.1417 11.5659C9.2645 12.0354 8.204 12.9017 7.9625 13.1164C7.82659 13.2377 7.69183 13.3334 7.49992 13.3334C7.31034 13.3334 7.17559 13.24 7.04084 13.1193C6.80692 12.9104 5.74584 12.0378 3.85817 11.5659C3.78339 11.5477 3.71294 11.5149 3.65089 11.4694C3.58883 11.4239 3.5364 11.3665 3.4966 11.3007C3.45681 11.2348 3.43043 11.1617 3.41901 11.0856C3.40758 11.0095 3.41133 10.9319 3.43003 10.8573C3.44873 10.7826 3.48202 10.7124 3.52797 10.6507C3.57392 10.5889 3.63164 10.5369 3.69779 10.4976C3.76393 10.4583 3.83721 10.4324 3.91339 10.4215C3.98957 10.4107 4.06716 10.415 4.14167 10.4342C5.36375 10.7399 6.28834 11.1984 6.91658 11.588V9.79719C5.78878 9.6551 4.75161 9.10625 3.99977 8.25367C3.24794 7.40109 2.83315 6.30341 2.83325 5.16669V3.87402C2.83325 3.34377 3.23692 2.79485 3.88734 2.81235C4.3155 2.82402 4.96884 2.91035 5.63734 3.25744C5.726 3.0836 5.824 2.92085 5.92609 2.77327C6.13609 2.46819 6.377 2.20744 6.62433 2.01727Z" fill="#16270C"/>
</g>
<defs>
<clipPath id="clip0_4_1693">
<rect width="14" height="14" fill="white" transform="translate(0.5 0.5)"/>
</clipPath>
</defs>
</svg>
